<svg width="16" height="16" viewBox="0 0 16 16" fill="none" xmlns="http://www.w3.org/2000/svg">
<path d="M6.90826 1.34308C7.61774 1.10764 8.38238 1.10764 9.09185 1.34308C9.79853 1.57766 10.3534 2.13434 10.9109 2.916C11.4701 3.70017 12.0886 4.79547 12.8874 6.20897C13.6863 7.6226 14.3057 8.71754 14.6908 9.60415C15.0752 10.4894 15.2668 11.254 15.114 11.9883C14.9602 12.7274 14.5809 13.3995 14.0287 13.9075C13.4777 14.4144 12.7273 14.6284 11.7826 14.7311C10.8368 14.8339 9.59736 14.8333 8.00006 14.8333C6.40276 14.8333 5.16334 14.8339 4.21751 14.7311C3.27282 14.6284 2.52243 14.4144 1.97141 13.9075C1.41917 13.3995 1.03995 12.7274 0.886126 11.9883C0.733356 11.254 0.924866 10.4894 1.3093 9.60415C1.69437 8.71754 2.31379 7.6226 3.11269 6.20897C3.91151 4.79547 4.53005 3.70017 5.08925 2.916C5.64667 2.13434 6.20158 1.57766 6.90826 1.34308ZM8.77675 2.2923C8.27183 2.12477 7.72829 2.12477 7.22337 2.2923C6.82604 2.42419 6.42618 2.76316 5.90305 3.49673C5.38177 4.22775 4.79326 5.26766 3.98313 6.70116C3.17301 8.13464 2.58579 9.17561 2.22662 10.0026C1.86684 10.831 1.77671 11.3587 1.86529 11.7845C1.97705 12.3215 2.25175 12.8069 2.6485 13.1719C2.9601 13.4585 3.44569 13.6413 4.32558 13.737C5.20453 13.8325 6.37912 13.8333 8.00006 13.8333C9.62099 13.8333 10.7956 13.8325 11.6745 13.737C12.5544 13.6413 13.04 13.4585 13.3516 13.1719C13.7484 12.8069 14.0231 12.3215 14.1348 11.7845C14.2234 11.3587 14.1333 10.831 13.7735 10.0026C13.4143 9.17561 12.8271 8.13464 12.017 6.70116C11.2069 5.26766 10.6183 4.22775 10.0971 3.49673C9.57394 2.76316 9.17408 2.42419 8.77675 2.2923Z" fill="#868E96"/>
<path d="M8.00065 10C8.36884 10 8.66732 10.2985 8.66732 10.6667C8.66732 11.0349 8.36884 11.3333 8.00065 11.3333H7.99479C7.6266 11.3333 7.32812 11.0349 7.32812 10.6667C7.32812 10.2985 7.6266 10 7.99479 10H8.00065Z" fill="#868E96"/>
<path d="M8.5 5.99984L8.5 8.6665C8.5 8.94265 8.27614 9.1665 8 9.1665C7.72386 9.1665 7.5 8.94265 7.5 8.6665L7.5 5.99984C7.5 5.72369 7.72386 5.49984 8 5.49984C8.27614 5.49984 8.5 5.7237 8.5 5.99984Z" fill="#868E96"/>
</svg>
