<svg width="24" height="25" viewBox="0 0 24 25" fill="none" xmlns="http://www.w3.org/2000/svg">
<path d="M14.25 12.5001C14.25 12.5113 14.2434 12.4145 14.0996 12.1759C13.9681 11.9577 13.7658 11.6936 13.5 11.3927C12.9698 10.7926 12.2493 10.1167 11.5088 9.47371C10.772 8.83405 10.0327 8.24077 9.47654 7.80672C9.19883 7.58999 8.96702 7.41299 8.80564 7.2911C8.72512 7.23028 8.66181 7.18326 8.61912 7.15145C8.59793 7.13566 8.58204 7.1233 8.57127 7.11532C8.56588 7.11132 8.56118 7.10845 8.55857 7.10653C8.55735 7.10563 8.55621 7.10499 8.55564 7.10457V7.1036C8.22216 6.85799 8.15093 6.38926 8.39646 6.05575C8.64207 5.72227 9.1108 5.65104 9.44431 5.89657H9.44529L9.44627 5.89754C9.44712 5.89817 9.44866 5.89935 9.45017 5.90047C9.45332 5.9028 9.45811 5.90599 9.46385 5.91024C9.47573 5.91904 9.49322 5.93165 9.5156 5.94832C9.56075 5.98197 9.62655 6.03182 9.70994 6.09481C9.87668 6.22075 10.1147 6.40192 10.3994 6.62411C10.9681 7.06797 11.7292 7.67847 12.4922 8.3409C13.2514 9.00015 14.0303 9.72549 14.625 10.3985C14.9216 10.7342 15.1881 11.0753 15.3847 11.4014C15.5689 11.707 15.75 12.0937 15.75 12.5001C15.75 12.9064 15.5689 13.2932 15.3847 13.5987C15.1881 13.9249 14.9216 14.2659 14.625 14.6016C14.0303 15.2747 13.2514 16 12.4922 16.6593C11.7291 17.3218 10.9672 17.9322 10.3984 18.3761C10.1138 18.5981 9.87663 18.7795 9.70994 18.9054C9.62655 18.9683 9.56075 19.0182 9.5156 19.0518C9.49323 19.0685 9.47573 19.0811 9.46385 19.0899C9.45813 19.0942 9.45332 19.0974 9.45017 19.0997C9.44868 19.1008 9.44712 19.102 9.44627 19.1026L9.44529 19.1036H9.44431C9.1108 19.3492 8.64207 19.2779 8.39646 18.9444C8.15091 18.6109 8.22215 18.1422 8.55564 17.8966V17.8956C8.55621 17.8952 8.55734 17.8945 8.55857 17.8936C8.56112 17.8918 8.5651 17.8887 8.57029 17.8848C8.58107 17.8769 8.59777 17.8646 8.61912 17.8487C8.66181 17.8169 8.72511 17.7699 8.80564 17.7091C8.96702 17.5872 9.19883 17.4102 9.47654 17.1934C10.0327 16.7594 10.772 16.1661 11.5088 15.5264C12.2491 14.8837 12.9699 14.2084 13.5 13.6085C13.7659 13.3076 13.9681 13.0424 14.0996 12.8243C14.2432 12.5861 14.25 12.4892 14.25 12.5001Z" fill="#212529"/>
</svg>
