<svg width="16" height="17" viewBox="0 0 16 17" fill="none" xmlns="http://www.w3.org/2000/svg">
<path d="M3.54482 1.35787C3.92261 1.43596 4.22348 1.68978 4.4104 2.02514L5.00588 3.09344C5.22522 3.4869 5.4098 3.81803 5.53034 4.10587C5.65821 4.41122 5.73416 4.71232 5.69944 5.04523C5.66472 5.37814 5.52829 5.6571 5.34017 5.92949C5.16283 6.18627 4.9139 6.47219 4.6181 6.81194L3.74276 7.8174C3.5859 7.99757 3.50747 8.08766 3.50031 8.20026C3.49314 8.31286 3.55742 8.40904 3.68598 8.60139C4.7817 10.2408 6.25847 11.718 7.8992 12.8147C8.09155 12.9433 8.18773 13.0076 8.30033 13.0004C8.41293 12.9932 8.50302 12.9148 8.6832 12.7579L9.68871 11.8825C10.0285 11.5867 10.3144 11.3378 10.5712 11.1605C10.8435 10.9724 11.1225 10.8359 11.4554 10.8012C11.7883 10.7665 12.0894 10.8424 12.3948 10.9703C12.6826 11.0908 13.0137 11.2754 13.4071 11.4947L14.4755 12.0902C14.8109 12.2772 15.0647 12.578 15.1428 12.9558C15.2217 13.3376 15.1053 13.7213 14.8483 14.0366C13.9157 15.1809 12.4215 15.9094 10.854 15.5932C9.89048 15.3989 8.93982 15.075 7.79002 14.4156C5.47978 13.0907 3.4084 11.0182 2.08502 8.71063C1.4256 7.56082 1.10179 6.61017 0.907431 5.64666C0.591233 4.07917 1.31979 2.58499 2.46403 1.65239C2.77939 1.39536 3.16309 1.27898 3.54482 1.35787Z" fill="#2563EB"/>
</svg>
