<svg width="20" height="21" viewBox="0 0 20 21" fill="none" xmlns="http://www.w3.org/2000/svg">
<path d="M2.50004 4.45801C2.15486 4.45801 1.87504 4.17819 1.87504 3.83301C1.87504 3.48783 2.15486 3.20801 2.50004 3.20801L10.8334 3.20801C11.1786 3.20801 11.4584 3.48783 11.4584 3.83301C11.4584 4.17819 11.1786 4.45801 10.8334 4.45801L2.50004 4.45801Z" fill="#343A40"/>
<path d="M2.50008 16.958C2.1549 16.958 1.87508 16.6782 1.87508 16.333C1.87508 15.9878 2.1549 15.708 2.50008 15.708L9.16675 15.708C9.51193 15.708 9.79175 15.9878 9.79175 16.333C9.79175 16.6782 9.51193 16.958 9.16675 16.958L2.50008 16.958Z" fill="#343A40"/>
<path d="M14.1667 16.958C13.8215 16.958 13.5417 16.6782 13.5417 16.333C13.5417 15.9878 13.8215 15.708 14.1667 15.708L17.5 15.708C17.8452 15.708 18.125 15.9878 18.125 16.333C18.125 16.6782 17.8452 16.958 17.5 16.958L14.1667 16.958Z" fill="#343A40"/>
<path d="M9.16667 10.708C8.82149 10.708 8.54167 10.4282 8.54167 10.083C8.54167 9.73783 8.82149 9.45801 9.16667 9.45801L17.5 9.45801C17.8452 9.45801 18.125 9.73783 18.125 10.083C18.125 10.4282 17.8452 10.708 17.5 10.708L9.16667 10.708Z" fill="#343A40"/>
<path d="M15.8333 4.45801C15.4882 4.45801 15.2083 4.17819 15.2083 3.83301C15.2083 3.48783 15.4882 3.20801 15.8333 3.20801L17.5 3.20801C17.8452 3.20801 18.125 3.48783 18.125 3.83301C18.125 4.17819 17.8452 4.45801 17.5 4.45801L15.8333 4.45801Z" fill="#343A40"/>
<path d="M2.50008 10.708C2.1549 10.708 1.87508 10.4282 1.87508 10.083C1.87508 9.73783 2.1549 9.45801 2.50008 9.45801L4.16675 9.45801C4.51193 9.45801 4.79175 9.73783 4.79175 10.083C4.79175 10.4282 4.51193 10.708 4.16675 10.708L2.50008 10.708Z" fill="#343A40"/>
<path d="M12.4968 4.86833C12.5812 4.86257 12.5921 4.85429 12.5798 4.85938C12.6308 4.83823 12.6718 4.7973 12.6929 4.74626C12.6878 4.75853 12.6961 4.74764 12.7019 4.66325C12.708 4.57324 12.7084 4.45253 12.7084 4.24984L12.7084 3.4165C12.7084 3.21381 12.708 3.0931 12.7019 3.00309C12.6961 2.9187 12.6878 2.90781 12.6929 2.92008C12.6718 2.86904 12.6308 2.82811 12.5798 2.80697C12.5921 2.81205 12.5812 2.80377 12.4968 2.79801C12.4068 2.79187 12.2861 2.7915 12.0834 2.7915C11.8807 2.7915 11.76 2.79187 11.67 2.79801C11.5856 2.80377 11.5747 2.81205 11.587 2.80697C11.5359 2.82811 11.495 2.86904 11.4738 2.92008C11.4789 2.90781 11.4706 2.9187 11.4649 3.00309C11.4587 3.0931 11.4584 3.21381 11.4584 3.4165L11.4584 4.24984C11.4584 4.45253 11.4587 4.57324 11.4649 4.66325C11.4706 4.74764 11.4789 4.75853 11.4738 4.74626C11.495 4.7973 11.5359 4.83823 11.587 4.85938C11.5747 4.85429 11.5856 4.86257 11.67 4.86833C11.76 4.87447 11.8807 4.87484 12.0834 4.87484C12.2861 4.87484 12.4068 4.87447 12.4968 4.86833ZM12.0834 6.12484C11.8978 6.12484 11.7269 6.12479 11.5845 6.11507C11.4366 6.10496 11.2737 6.08262 11.1084 6.01416C10.7511 5.86615 10.4671 5.58207 10.3191 5.22477C10.2506 5.05949 10.2283 4.89663 10.2181 4.7487C10.2084 4.60628 10.2084 4.43543 10.2084 4.24984L10.2084 3.4165C10.2084 3.23091 10.2084 3.06007 10.2181 2.91764C10.2283 2.76971 10.2506 2.60685 10.3191 2.44157C10.4671 2.08427 10.7511 1.80019 11.1084 1.65218C11.2737 1.58372 11.4366 1.56138 11.5845 1.55127C11.7269 1.54155 11.8978 1.5415 12.0834 1.5415C12.269 1.5415 12.4398 1.54155 12.5822 1.55127C12.7302 1.56138 12.893 1.58372 13.0583 1.65218C13.4156 1.80019 13.6997 2.08427 13.8477 2.44157C13.9162 2.60685 13.9385 2.76971 13.9486 2.91764C13.9583 3.06007 13.9584 3.23091 13.9584 3.4165L13.9584 4.24984C13.9584 4.43543 13.9583 4.60628 13.9486 4.7487C13.9385 4.89663 13.9162 5.05949 13.8477 5.22477C13.6997 5.58207 13.4156 5.86615 13.0583 6.01416C12.893 6.08262 12.7302 6.10496 12.5822 6.11507C12.4398 6.12479 12.269 6.12484 12.0834 6.12484Z" fill="#343A40"/>
<path d="M10.8302 17.3683C10.9146 17.3626 10.9254 17.3543 10.9132 17.3594C10.9642 17.3382 11.0051 17.2973 11.0263 17.2463C11.0212 17.2585 11.0295 17.2476 11.0352 17.1632C11.0414 17.0732 11.0417 16.9525 11.0417 16.7498L11.0417 15.9165C11.0417 15.7138 11.0414 15.5931 11.0352 15.5031C11.0295 15.4187 11.0212 15.4078 11.0263 15.4201C11.0051 15.369 10.9642 15.3281 10.9132 15.307C10.9254 15.3121 10.9146 15.3038 10.8302 15.298C10.7402 15.2919 10.6194 15.2915 10.4167 15.2915C10.2141 15.2915 10.0933 15.2919 10.0033 15.298C9.91894 15.3038 9.90805 15.3121 9.92033 15.307C9.86928 15.3281 9.82835 15.369 9.80721 15.4201C9.8123 15.4078 9.80402 15.4187 9.79826 15.5031C9.79212 15.5931 9.79175 15.7138 9.79175 15.9165L9.79175 16.7498C9.79175 16.9525 9.79212 17.0732 9.79826 17.1632C9.80402 17.2476 9.8123 17.2585 9.80721 17.2463C9.82835 17.2973 9.86928 17.3382 9.92033 17.3594C9.90805 17.3543 9.91894 17.3626 10.0033 17.3683C10.0933 17.3745 10.2141 17.3748 10.4167 17.3748C10.6194 17.3748 10.7402 17.3745 10.8302 17.3683ZM10.4167 18.6248C10.2312 18.6248 10.0603 18.6248 9.91789 18.6151C9.76995 18.605 9.60709 18.5826 9.44181 18.5142C9.08451 18.3661 8.80044 18.0821 8.65242 17.7248C8.58396 17.5595 8.56163 17.3966 8.55151 17.2487C8.5418 17.1063 8.54175 16.9354 8.54175 16.7498L8.54175 15.9165C8.54175 15.7309 8.5418 15.5601 8.55151 15.4176C8.56163 15.2697 8.58396 15.1068 8.65242 14.9416C8.80044 14.5843 9.08451 14.3002 9.44181 14.1522C9.60709 14.0837 9.76995 14.0614 9.91789 14.0513C10.0603 14.0416 10.2312 14.0415 10.4167 14.0415C10.6023 14.0415 10.7732 14.0416 10.9156 14.0513C11.0635 14.0614 11.2264 14.0837 11.3917 14.1522C11.749 14.3002 12.0331 14.5843 12.1811 14.9416C12.2495 15.1068 12.2719 15.2697 12.282 15.4176C12.2917 15.5601 12.2917 15.7309 12.2917 15.9165L12.2917 16.7498C12.2917 16.9354 12.2917 17.1063 12.282 17.2487C12.2719 17.3966 12.2495 17.5595 12.1811 17.7248C12.0331 18.0821 11.749 18.3661 11.3917 18.5142C11.2264 18.5826 11.0635 18.605 10.9156 18.6151C10.7732 18.6248 10.6023 18.6248 10.4167 18.6248Z" fill="#343A40"/>
<path d="M8.33016 11.1183C8.41455 11.1126 8.42544 11.1043 8.41317 11.1094C8.46421 11.0882 8.50514 11.0473 8.52629 10.9963C8.5212 11.0085 8.52948 10.9976 8.53524 10.9132C8.54138 10.8232 8.54175 10.7025 8.54175 10.4998L8.54175 9.6665C8.54175 9.46381 8.54138 9.3431 8.53524 9.25309C8.52948 9.1687 8.5212 9.15781 8.52629 9.17008C8.50514 9.11904 8.46421 9.07811 8.41317 9.05697C8.42544 9.06205 8.41455 9.05377 8.33016 9.04801C8.24015 9.04187 8.11944 9.0415 7.91675 9.0415C7.71406 9.0415 7.59334 9.04187 7.50334 9.04801C7.41894 9.05377 7.40805 9.06205 7.42033 9.05697C7.36928 9.07811 7.32835 9.11904 7.30721 9.17008C7.3123 9.15781 7.30402 9.1687 7.29826 9.25309C7.29212 9.3431 7.29175 9.46381 7.29175 9.6665L7.29175 10.4998C7.29175 10.7025 7.29212 10.8232 7.29826 10.9132C7.30402 10.9976 7.3123 11.0085 7.30721 10.9963C7.32835 11.0473 7.36928 11.0882 7.42033 11.1094C7.40805 11.1043 7.41894 11.1126 7.50334 11.1183C7.59334 11.1245 7.71406 11.1248 7.91675 11.1248C8.11944 11.1248 8.24015 11.1245 8.33016 11.1183ZM7.91675 12.3748C7.73116 12.3748 7.56031 12.3748 7.41789 12.3651C7.26995 12.355 7.10709 12.3326 6.94181 12.2642C6.58451 12.1161 6.30044 11.8321 6.15242 11.4748C6.08396 11.3095 6.06163 11.1466 6.05151 10.9987C6.0418 10.8563 6.04175 10.6854 6.04175 10.4998L6.04175 9.6665C6.04175 9.48091 6.0418 9.31007 6.05151 9.16764C6.06163 9.01971 6.08396 8.85685 6.15243 8.69157C6.30044 8.33427 6.58452 8.05019 6.94181 7.90218C7.10709 7.83372 7.26995 7.81138 7.41789 7.80127C7.56031 7.79155 7.73116 7.7915 7.91675 7.7915C8.10234 7.7915 8.27319 7.79155 8.41561 7.80127C8.56354 7.81138 8.7264 7.83372 8.89168 7.90218C9.24898 8.05019 9.53306 8.33427 9.68107 8.69157C9.74953 8.85685 9.77187 9.01971 9.78198 9.16764C9.7917 9.31007 9.79175 9.48091 9.79175 9.6665L9.79175 10.4998C9.79175 10.6854 9.7917 10.8563 9.78198 10.9987C9.77187 11.1466 9.74953 11.3095 9.68107 11.4748C9.53306 11.8321 9.24898 12.1161 8.89168 12.2642C8.7264 12.3326 8.56354 12.355 8.41561 12.3651C8.27319 12.3748 8.10234 12.3748 7.91675 12.3748Z" fill="#343A40"/>
</svg>
