<svg width="16" height="16" viewBox="0 0 16 16" fill="none" xmlns="http://www.w3.org/2000/svg">
<path d="M5.5 7.99973C5.50001 7.72883 5.62073 7.47098 5.74349 7.26731C5.87457 7.04986 6.05226 6.82249 6.25 6.59869C6.64645 6.15 7.1657 5.66644 7.67187 5.22694C8.1805 4.78532 8.6879 4.37832 9.06706 4.08241C9.25685 3.93429 9.41553 3.81351 9.52669 3.72955C9.58229 3.68755 9.62615 3.65432 9.65625 3.63189C9.67117 3.62077 9.68283 3.61237 9.69075 3.6065C9.69458 3.60367 9.69777 3.60154 9.69987 3.59999C9.70088 3.59924 9.7019 3.59846 9.70247 3.59804L9.70312 3.59739H9.70378C9.92612 3.4337 10.2386 3.48119 10.4023 3.70351C10.566 3.92585 10.5185 4.23834 10.2962 4.40207V4.40272C10.2958 4.403 10.2951 4.40343 10.2943 4.40403C10.2925 4.40531 10.2894 4.40722 10.2858 4.40989C10.2786 4.41521 10.268 4.42345 10.2539 4.43397C10.2254 4.45518 10.1832 4.48653 10.1296 4.52707C10.022 4.60833 9.86743 4.72634 9.68229 4.87082C9.31151 5.16019 8.81862 5.55571 8.32747 5.98215C7.83382 6.41078 7.35344 6.86144 7 7.26145C6.82276 7.46205 6.68792 7.63817 6.60026 7.78358C6.50436 7.94268 6.5 8.00721 6.5 7.99973C6.50001 7.99249 6.50454 8.05707 6.60026 8.21588C6.68792 8.36129 6.82275 8.53805 7 8.73866C7.35347 9.13865 7.8345 9.58873 8.32812 10.0173C8.81924 10.4437 9.31154 10.8393 9.68229 11.1286C9.86743 11.2731 10.022 11.3911 10.1296 11.4724C10.1832 11.5129 10.2254 11.5443 10.2539 11.5655C10.2681 11.5761 10.2793 11.5843 10.2865 11.5896C10.2899 11.5921 10.2926 11.5942 10.2943 11.5954C10.2951 11.596 10.2958 11.5965 10.2962 11.5967V11.5974C10.5186 11.7611 10.566 12.0736 10.4023 12.296C10.2386 12.5183 9.92612 12.5658 9.70378 12.4021H9.70312L9.70247 12.4014C9.7019 12.401 9.70086 12.4002 9.69987 12.3995C9.69777 12.3979 9.69456 12.3958 9.69075 12.393C9.68283 12.3871 9.67117 12.3787 9.65625 12.3676C9.62615 12.3451 9.58229 12.3119 9.52669 12.2699C9.41556 12.186 9.25742 12.0651 9.06771 11.917C8.68852 11.6211 8.18061 11.2142 7.67187 10.7725C7.16569 10.333 6.64645 9.84945 6.25 9.40077C6.05226 9.17697 5.87457 8.94959 5.74349 8.73215C5.62073 8.52847 5.5 8.27062 5.5 7.99973Z" fill="#141B34"/>
</svg>
