<svg width="21" height="21" viewBox="0 0 21 21" fill="none" xmlns="http://www.w3.org/2000/svg">
<path d="M3.19302 1.98711C5.96612 0.111726 8.45387 0.859146 9.95675 2.10347C10.204 2.30818 10.3737 2.44828 10.5 2.54289C10.6263 2.44828 10.796 2.30818 11.0433 2.10347C12.5461 0.859146 15.0339 0.111726 17.807 1.98711C19.7245 3.28388 20.8034 5.99263 20.4248 9.10491C20.0444 12.2322 18.2084 15.7692 14.3203 18.9421C12.9701 20.0445 11.9792 20.8536 10.5 20.8536C9.02082 20.8536 8.02988 20.0445 6.67971 18.9421C2.79156 15.7692 0.955603 12.2322 0.575173 9.10491C0.196569 5.99263 1.27552 3.28388 3.19302 1.98711Z" fill="#141B34"/>
</svg>
