<svg width="21" height="21" viewBox="0 0 21 21" fill="none" xmlns="http://www.w3.org/2000/svg">
<path d="M11.0433 1.78683C12.5461 0.542548 15.0337 -0.205491 17.8067 1.66965C19.7242 2.96642 20.8034 5.67567 20.4248 8.78796C20.0444 11.9152 18.2081 15.4518 14.32 18.6246C12.9152 19.771 12.0142 20.5366 10.5 20.5366C8.98578 20.5366 8.08484 19.771 6.67996 18.6246C2.79194 15.4518 0.955606 11.9152 0.575155 8.78796C0.196556 5.67567 1.27584 2.96642 3.19332 1.66965C5.96626 -0.205492 8.45394 0.542548 9.95675 1.78683C10.2033 1.99094 10.3738 2.12895 10.5 2.22353C10.6262 2.12895 10.7967 1.99094 11.0433 1.78683ZM17.0772 2.98173C14.861 1.48296 12.9939 2.09519 11.8808 3.01679C11.6211 3.23183 11.3985 3.41673 11.2213 3.54463C11.1315 3.60946 11.032 3.67549 10.9288 3.72692C10.8308 3.77573 10.6803 3.83709 10.5 3.83709C10.3197 3.83709 10.1692 3.77573 10.0712 3.72692C9.96799 3.67549 9.86851 3.60946 9.77869 3.54463C9.60149 3.41673 9.37887 3.23183 9.11915 3.01679C8.00608 2.09519 6.13897 1.48296 3.9228 2.98173C2.56641 3.8991 1.63831 5.94959 1.95873 8.58363C2.27743 11.2026 3.84691 14.3991 7.51028 17.3886C8.98187 18.5895 9.51899 18.9982 10.5 18.9982C11.481 18.9982 12.0181 18.5895 13.4897 17.3886C17.1531 14.3991 18.7226 11.2026 19.0413 8.58363C19.3617 5.94959 18.4336 3.8991 17.0772 2.98173Z" fill="#141B34"/>
</svg>
