<svg width="25" height="25" viewBox="0 0 25 25" fill="none" xmlns="http://www.w3.org/2000/svg">
<path d="M12.4999 16.3311C13.7192 16.3311 14.6832 17.3658 14.5965 18.582L14.5955 18.5898L14.3719 22.6084C14.1257 22.609 13.87 22.6103 13.6053 22.6103H11.3934C11.1289 22.6103 10.8738 22.609 10.6278 22.6084L10.4052 18.5898L10.4042 18.582C10.3175 17.3658 11.2806 16.3312 12.4999 16.3311ZM12.4999 2.61035C13.3055 2.61037 14.026 2.86836 14.8036 3.30469C15.5568 3.72746 16.4204 4.35099 17.5057 5.13574L18.909 6.15137C19.7801 6.78125 20.4759 7.28435 21.0008 7.75C21.5426 8.23077 21.9487 8.70963 22.2058 9.3125C22.4635 9.91661 22.5255 10.5361 22.491 11.25C22.4576 11.9391 22.33 12.7709 22.1707 13.8076L21.8767 15.7158C21.6504 17.189 21.4706 18.3624 21.2058 19.2764C20.932 20.2214 20.5457 20.9724 19.8562 21.5459C19.1697 22.1168 18.3514 22.3708 17.3524 22.4922C17.0126 22.5334 16.6418 22.5587 16.2371 22.5762L16.452 18.707C16.6111 16.4171 14.7964 14.4707 12.4999 14.4707C10.2035 14.4708 8.38865 16.4172 8.54776 18.707L8.7626 22.5762C8.35789 22.5587 7.98709 22.5334 7.64738 22.4922C6.6484 22.3708 5.83006 22.1168 5.1435 21.5459C4.45398 20.9724 4.06775 20.2214 3.7939 19.2764C3.5291 18.3624 3.34841 17.189 3.12203 15.7158L2.82907 13.8076C2.66975 12.7709 2.54212 11.9391 2.50876 11.25C2.47423 10.5361 2.53625 9.91661 2.79391 9.3125C3.05106 8.70964 3.45713 8.23077 3.99898 7.75C4.52379 7.28436 5.2196 6.78125 6.09075 6.15137L7.49406 5.13574C8.57939 4.35098 9.4429 3.72745 10.1962 3.30469C10.9737 2.86835 11.6942 2.61035 12.4999 2.61035Z" fill="#141B34"/>
</svg>
