<svg width="21" height="21" viewBox="0 0 21 21" fill="none" xmlns="http://www.w3.org/2000/svg">
<path d="M10.4994 12.1667C12.6637 12.1667 14.3737 14.0034 14.2195 16.1621L13.9861 19.4262L12.5943 19.3263L12.8278 16.0622C12.9242 14.7112 11.8538 13.5621 10.4994 13.5621C9.14509 13.5623 8.07552 14.7113 8.17194 16.0622L8.4045 19.3263L7.01274 19.4262L6.78018 16.1621C6.62599 14.0034 8.33525 12.1669 10.4994 12.1667Z" fill="#141B34"/>
<path d="M10.5 0.0732422C11.3057 0.0732423 12.0263 0.330955 12.8039 0.767305C13.5651 1.19455 14.4385 1.82766 15.5401 2.62419L16.8801 3.59261C17.765 4.23243 18.4706 4.74154 19.0014 5.21239C19.5432 5.69319 19.9488 6.17295 20.206 6.77585C20.4637 7.3801 20.5258 7.9995 20.4912 8.71359C20.4575 9.41095 20.3271 10.254 20.1651 11.3081L19.8853 13.1305C19.6554 14.6266 19.4744 15.8158 19.2067 16.7398C18.9328 17.6849 18.5463 18.4356 17.8567 19.0092C17.1701 19.5801 16.3521 19.8344 15.353 19.9558C14.3712 20.075 13.1301 20.0739 11.5593 20.0739H9.44074C7.86994 20.0739 6.62879 20.075 5.64701 19.9558C4.64793 19.8344 3.82992 19.5801 3.1433 19.0092C2.45375 18.4356 2.06719 17.6849 1.79333 16.7398C1.52561 15.8158 1.34463 14.6266 1.11471 13.1305L0.834909 11.3081C0.672916 10.254 0.542537 9.41095 0.508773 8.71359C0.4742 7.9995 0.536305 7.3801 0.794029 6.77585C1.05119 6.17295 1.45675 5.69319 1.99864 5.21239C2.52939 4.74154 3.23499 4.23243 4.1199 3.59261L5.45987 2.62419C6.56152 1.82766 7.43486 1.19455 8.19615 0.767305C8.97373 0.330955 9.69433 0.0732422 10.5 0.0732422ZM10.5 1.46863C10.0191 1.46863 9.53839 1.61389 8.87931 1.98373C8.20404 2.36267 7.40474 2.93952 6.27658 3.75522L4.93751 4.72364C4.03003 5.37978 3.39091 5.84228 2.92436 6.25621C2.46892 6.66031 2.22453 6.97934 2.07768 7.32365C1.93144 7.6666 1.87373 8.05524 1.90235 8.64637C1.9318 9.25424 2.04758 10.0139 2.21395 11.0965L2.49375 12.9188C2.72936 14.452 2.8976 15.5353 3.13422 16.3519C3.36472 17.1472 3.63856 17.6062 4.03541 17.9363C4.43514 18.2687 4.95453 18.4658 5.81508 18.5704C6.69325 18.677 7.8349 18.6785 9.44074 18.6785H11.5593C13.1651 18.6785 14.3067 18.677 15.1849 18.5704C16.0455 18.4658 16.5649 18.2687 16.9646 17.9363C17.3614 17.6062 17.6353 17.1472 17.8658 16.3519C18.1024 15.5353 18.2706 14.452 18.5062 12.9188L18.786 11.0965C18.9524 10.0139 19.0682 9.25424 19.0977 8.64637C19.1263 8.05524 19.0686 7.6666 18.9223 7.32365C18.7755 6.97934 18.5311 6.66031 18.0756 6.25621C17.6091 5.84228 16.97 5.37978 16.0625 4.72364L14.7234 3.75522C13.5953 2.93952 12.796 2.36267 12.1207 1.98373C11.4616 1.61389 10.9809 1.46863 10.5 1.46863Z" fill="#141B34"/>
</svg>
