<svg width="20" height="21" viewBox="0 0 20 21" fill="none" xmlns="http://www.w3.org/2000/svg">
<path d="M15 8.20854C15.3451 8.20854 15.625 8.48837 15.625 8.83355C15.625 9.17872 15.3451 9.45854 15 9.45854L9.16662 9.4585C8.82144 9.4585 8.54162 9.17867 8.54162 8.8335C8.54162 8.48832 8.82145 8.2085 9.16663 8.2085L15 8.20854Z" fill="#343A40"/>
<path d="M13.3333 11.5415C13.6785 11.5415 13.9583 11.8213 13.9583 12.1665C13.9583 12.5117 13.6785 12.7915 13.3333 12.7915H9.16663C8.82145 12.7915 8.54163 12.5117 8.54163 12.1665C8.54163 11.8213 8.82145 11.5415 9.16663 11.5415H13.3333Z" fill="#343A40"/>
<path d="M11.6666 14.875C12.0118 14.875 12.2916 15.1548 12.2916 15.5C12.2916 15.8452 12.0118 16.125 11.6666 16.125H9.16663C8.82145 16.125 8.54163 15.8452 8.54163 15.5C8.54163 15.1548 8.82145 14.875 9.16663 14.875H11.6666Z" fill="#343A40"/>
<path d="M17.5 4.875C17.8451 4.875 18.125 5.15482 18.125 5.5C18.125 5.84518 17.8451 6.125 17.5 6.125H9.16663C8.82145 6.125 8.54163 5.84518 8.54163 5.5C8.54163 5.15482 8.82145 4.875 9.16663 4.875H17.5Z" fill="#343A40"/>
<path d="M4.79169 13L4.79169 16.5319C4.86041 16.4375 4.92761 16.3434 4.9927 16.2528C5.11957 16.0761 5.25759 15.8843 5.36624 15.762C5.59551 15.504 5.99038 15.4807 6.2484 15.71C6.5064 15.9392 6.52973 16.3341 6.30048 16.5921C6.24533 16.6542 6.15161 16.7824 6.00833 16.9819C5.87544 17.167 5.71322 17.3936 5.54609 17.6094C5.38133 17.822 5.19408 18.0476 5.00409 18.2246C4.90906 18.3131 4.79766 18.404 4.6745 18.4761C4.55739 18.5446 4.3807 18.625 4.16669 18.625L4.08857 18.6217C3.90959 18.6055 3.76142 18.5361 3.65888 18.4761C3.53573 18.404 3.42432 18.3131 3.32929 18.2246C3.1393 18.0476 2.95206 17.822 2.7873 17.6094C2.62016 17.3936 2.45795 17.167 2.32506 16.9819C2.18177 16.7824 2.08805 16.6542 2.0329 16.5921C1.80365 16.3341 1.82698 15.9392 2.08499 15.71C2.343 15.4807 2.73787 15.504 2.96715 15.762C3.07579 15.8843 3.21381 16.0761 3.34068 16.2528C3.40577 16.3434 3.47297 16.4375 3.54169 16.5319L3.54169 13C3.54169 12.6548 3.82151 12.375 4.16669 12.375C4.51187 12.375 4.79169 12.6548 4.79169 13Z" fill="#343A40"/>
<path d="M3.54168 8L3.54168 4.4681C3.47296 4.56247 3.40577 4.65659 3.34067 4.74723C3.2138 4.9239 3.07578 5.11569 2.96714 5.23796C2.73786 5.49596 2.343 5.51929 2.08498 5.29004C1.82697 5.06076 1.80364 4.6659 2.03289 4.40788C2.08804 4.34582 2.18177 4.21759 2.32505 4.01807C2.45794 3.83302 2.62015 3.60636 2.78729 3.39062C2.95205 3.17795 3.13929 2.95237 3.32928 2.77539C3.42431 2.68687 3.53572 2.59601 3.65887 2.52393C3.77598 2.45538 3.95267 2.375 4.16668 2.375L4.24481 2.37826C4.42378 2.39449 4.57195 2.46391 4.6745 2.52393C4.79765 2.59601 4.90905 2.68687 5.00409 2.77539C5.19407 2.95237 5.38132 3.17795 5.54608 3.39062C5.71321 3.60636 5.87543 3.83302 6.00832 4.01807C6.1516 4.21759 6.24532 4.34582 6.30047 4.40788C6.52972 4.6659 6.50639 5.06076 6.24839 5.29004C5.99037 5.51929 5.59551 5.49596 5.36623 5.23796C5.25758 5.11569 5.11956 4.9239 4.99269 4.74723C4.9276 4.65659 4.86041 4.56247 4.79168 4.4681L4.79168 8C4.79168 8.34518 4.51186 8.625 4.16668 8.625C3.82151 8.625 3.54168 8.34518 3.54168 8Z" fill="#343A40"/>
</svg>
