<svg width="16" height="16" viewBox="0 0 16 16" fill="none" xmlns="http://www.w3.org/2000/svg">
<g clip-path="url(#clip0_437_3434)">
<path d="M2.46375 1.15222C2.77904 0.895244 3.16282 0.778496 3.54448 0.857297C3.92226 0.935378 4.22343 1.18928 4.41036 1.52461L4.99239 2.56889C5.21756 2.97285 5.40717 3.3117 5.53015 3.60534C5.65802 3.91068 5.73414 4.21189 5.69942 4.5448C5.66471 4.87766 5.52813 5.15655 5.34005 5.42891C5.15914 5.69087 4.90349 5.98309 4.59982 6.33191L3.13367 8.01615C4.31153 9.94697 6.05052 11.6865 7.98328 12.8658L9.66817 11.4003C10.017 11.0966 10.3092 10.8409 10.5712 10.66C10.8435 10.4719 11.1224 10.3354 11.4553 10.3007C11.7882 10.2659 12.0894 10.3421 12.3947 10.4699C12.6884 10.5929 13.0272 10.7825 13.4312 11.0077L14.4755 11.5897C14.8108 11.7766 15.0647 12.0778 15.1428 12.4556C15.2216 12.8373 15.1048 13.221 14.8479 13.5363C13.9152 14.6804 12.4211 15.4091 10.8537 15.093C9.89026 14.8986 8.93967 14.5746 7.78992 13.9152C5.47969 12.5903 3.40822 10.5177 2.08484 8.21016C1.42547 7.06041 1.10147 6.10982 0.907107 5.14636C0.590931 3.57898 1.31964 2.08483 2.46375 1.15222ZM11.5588 11.2954C11.453 11.3065 11.334 11.3487 11.1395 11.4829C10.9344 11.6246 10.6903 11.8356 10.3244 12.1542L8.91557 13.3807C9.69288 13.7637 10.3681 13.9746 11.0516 14.1125C12.1823 14.3406 13.324 13.8233 14.0731 12.9042C14.1711 12.7839 14.1722 12.6998 14.1636 12.6581C14.1542 12.6125 14.1157 12.5343 13.9885 12.4634L12.9442 11.8814C12.5207 11.6453 12.2385 11.4887 12.0087 11.3925C11.7904 11.3011 11.6647 11.2844 11.5588 11.2954ZM3.342 1.83646C3.30025 1.82793 3.21617 1.82902 3.09591 1.92696C2.17673 2.67612 1.6595 3.81775 1.88758 4.94844C2.02541 5.63174 2.23599 6.30688 2.6187 7.08386L3.84591 5.67566C4.16445 5.30977 4.37549 5.06565 4.51713 4.86055C4.65143 4.66607 4.69356 4.5471 4.70463 4.44128C4.71568 4.33539 4.69902 4.20965 4.60763 3.99141C4.51134 3.76156 4.35479 3.47943 4.1187 3.05586L3.53666 2.01159C3.46575 1.8844 3.38761 1.84589 3.342 1.83646Z" fill="#868E96"/>
<path d="M10.8332 7.33333V5.16667H8.6665C8.39036 5.16667 8.1665 4.94281 8.1665 4.66667C8.1665 4.39052 8.39036 4.16667 8.6665 4.16667H10.8332V2C10.8332 1.72386 11.057 1.5 11.3332 1.5C11.6093 1.5 11.8332 1.72386 11.8332 2V4.16667H13.9998C14.276 4.16667 14.4998 4.39052 14.4998 4.66667C14.4998 4.94281 14.276 5.16667 13.9998 5.16667H11.8332V7.33333C11.8332 7.60948 11.6093 7.83333 11.3332 7.83333C11.057 7.83333 10.8332 7.60948 10.8332 7.33333Z" fill="#868E96"/>
</g>
<defs>
<clipPath id="clip0_437_3434">
<rect width="16" height="16" fill="white"/>
</clipPath>
</defs>
</svg>
