<svg width="25" height="25" viewBox="0 0 25 25" fill="none" xmlns="http://www.w3.org/2000/svg">
<path d="M21.75 12.3909C21.75 7.28224 17.6086 3.14087 12.5 3.14087C7.39137 3.14087 3.25 7.28224 3.25 12.3909C3.25 17.4995 7.39137 21.6409 12.5 21.6409C17.6086 21.6409 21.75 17.4995 21.75 12.3909ZM23.25 12.3909C23.25 18.3279 18.4371 23.1409 12.5 23.1409C6.56294 23.1409 1.75 18.3279 1.75 12.3909C1.75 6.45381 6.56294 1.64087 12.5 1.64087C18.4371 1.64087 23.25 6.45381 23.25 12.3909Z" fill="#141B34"/>
<path d="M7.45758 16.8733C10.0706 14.1365 14.884 13.9889 17.5513 16.8831C17.8317 17.1877 17.8118 17.662 17.5074 17.9426C17.2028 18.223 16.7284 18.2031 16.4478 17.8987C14.4016 15.6789 10.5919 15.761 8.54156 17.9084C8.25552 18.208 7.78156 18.2189 7.48199 17.9329C7.18245 17.6468 7.17156 17.1729 7.45758 16.8733ZM14.2447 9.89087C14.2447 8.92538 13.4603 8.14087 12.4908 8.14087C11.5215 8.14104 10.7379 8.92548 10.7379 9.89087C10.7379 10.8563 11.5215 11.6407 12.4908 11.6409C13.4603 11.6409 14.2447 10.8564 14.2447 9.89087ZM15.7447 9.89087C15.7447 11.6868 14.2867 13.1409 12.4908 13.1409C10.695 13.1407 9.23785 11.6867 9.23785 9.89087C9.23785 8.09504 10.695 6.64104 12.4908 6.64087C14.2867 6.64087 15.7447 8.09494 15.7447 9.89087Z" fill="#141B34"/>
</svg>
