<svg width="21" height="21" viewBox="0 0 21 21" fill="none" xmlns="http://www.w3.org/2000/svg">
<path d="M10.5 0.293457C16.0228 0.293457 20.5 4.77061 20.5 10.2935C20.5 15.8163 16.0228 20.2935 10.5 20.2935C4.97715 20.2935 0.5 15.8163 0.5 10.2935C0.5 4.77061 4.97715 0.293457 10.5 0.293457ZM15.1893 14.4613C12.708 11.7823 8.24398 11.9202 5.81523 14.4568L5.64081 14.6312C5.50576 14.7663 5.43171 14.9508 5.43641 15.1417C5.44121 15.3328 5.52449 15.5141 5.66624 15.6423C6.94442 16.7981 8.64076 17.5027 10.5 17.5028C12.3592 17.5028 14.0556 16.798 15.3338 15.6423C15.4755 15.5141 15.5588 15.3328 15.5636 15.1417C15.5683 14.9508 15.4942 14.7663 15.3592 14.6312L15.1893 14.4613ZM10.4918 4.94462C8.82142 4.94484 7.46584 6.29737 7.46584 7.96788C7.46584 9.63838 8.82142 10.9909 10.4918 10.9911C12.1624 10.9911 13.5187 9.63851 13.5187 7.96788C13.5187 6.29724 12.1624 4.94462 10.4918 4.94462Z" fill="#141B34"/>
</svg>
