<svg width="25" height="24" viewBox="0 0 25 24" fill="none" xmlns="http://www.w3.org/2000/svg">
<path d="M21.9219 7.52241C22.1637 7.22903 22.593 7.16052 22.9161 7.37592C23.2607 7.60569 23.3539 8.07131 23.1241 8.41596L22.5001 7.99994C23.1241 8.41597 23.1243 8.41668 23.1241 8.41694H23.1231L23.1221 8.41889C23.1213 8.42014 23.1205 8.42188 23.1192 8.42377C23.1165 8.42781 23.1122 8.43353 23.1075 8.44037C23.0982 8.45397 23.0852 8.47301 23.0684 8.49702C23.0343 8.54582 22.9844 8.61578 22.92 8.70307C22.7911 8.87767 22.6023 9.12416 22.3575 9.41791C21.8688 10.0044 21.1521 10.786 20.2383 11.5693C18.4222 13.1259 15.7535 14.7499 12.5001 14.7499C9.24664 14.7499 6.57789 13.1259 4.76179 11.5693C3.848 10.786 3.13137 10.0044 2.64265 9.41791C2.39785 9.12416 2.20902 8.87767 2.08015 8.70307C2.01571 8.61578 1.96587 8.54582 1.93171 8.49702C1.91491 8.47301 1.90193 8.45397 1.89265 8.44037C1.88797 8.43353 1.88365 8.42781 1.88093 8.42377C1.87965 8.42188 1.87883 8.42014 1.878 8.41889L1.87702 8.41694H1.87604C1.87587 8.41668 1.87603 8.41597 2.50007 7.99994L1.87604 8.41596C1.64628 8.07131 1.7394 7.60569 2.08405 7.37592C2.4287 7.14616 2.89433 7.23928 3.12409 7.58393V7.58295C3.1242 7.58311 3.12448 7.58404 3.12507 7.58491C3.12626 7.58668 3.12796 7.59032 3.13093 7.59467C3.13709 7.60369 3.14763 7.61826 3.1612 7.63764C3.18856 7.67671 3.23075 7.736 3.28718 7.81244C3.40047 7.96593 3.57115 8.18837 3.79499 8.45698C4.24374 8.99547 4.90232 9.71401 5.73835 10.4306C7.42223 11.8739 9.75358 13.2499 12.5001 13.2499C15.2465 13.2499 17.5779 11.8739 19.2618 10.4306C20.0978 9.71401 20.7564 8.99547 21.2051 8.45698C21.429 8.18837 21.5997 7.96593 21.713 7.81244C21.7694 7.736 21.8116 7.67671 21.8389 7.63764C21.8525 7.61826 21.863 7.60369 21.8692 7.59467C21.8722 7.59032 21.8739 7.58668 21.8751 7.58491C21.8757 7.58404 21.8759 7.58311 21.876 7.58295V7.58393L21.9219 7.52241Z" fill="#141B34"/>
<path d="M15.1145 12.8565C15.4697 12.6436 15.9308 12.7592 16.1438 13.1143L17.6438 15.6143C17.8567 15.9694 17.7411 16.4305 17.386 16.6436C17.0309 16.8565 16.5698 16.7409 16.3567 16.3858L14.8567 13.8858C14.6438 13.5306 14.7594 13.0695 15.1145 12.8565Z" fill="#141B34"/>
<path d="M19.9697 10.4697C20.2626 10.1768 20.7373 10.1768 21.0302 10.4697L23.0302 12.4697C23.3231 12.7626 23.3231 13.2373 23.0302 13.5302C22.7373 13.8231 22.2626 13.8231 21.9697 13.5302L19.9697 11.5302C19.6768 11.2373 19.6768 10.7626 19.9697 10.4697Z" fill="#141B34"/>
<path d="M1.96967 13.5303C2.26256 13.8232 2.73732 13.8232 3.03022 13.5303L5.03022 11.5303C5.32311 11.2374 5.32311 10.7627 5.03022 10.4698C4.73732 10.1769 4.26256 10.1769 3.96967 10.4698L1.96967 12.4698C1.67678 12.7627 1.67678 13.2374 1.96967 13.5303Z" fill="#141B34"/>
<path d="M8.85672 13.1143C9.06977 12.7592 9.53087 12.6436 9.88601 12.8565C10.2411 13.0695 10.3567 13.5306 10.1438 13.8858L8.64383 16.3858C8.43077 16.7409 7.96968 16.8565 7.61453 16.6436C7.25944 16.4305 7.14384 15.9694 7.35672 15.6143L8.85672 13.1143Z" fill="#141B34"/>
</svg>
