<svg width="25" height="24" viewBox="0 0 25 24" fill="none" xmlns="http://www.w3.org/2000/svg">
<path d="M21.75 12C21.75 11.9839 21.7517 11.9697 21.7207 11.9102C21.6744 11.8212 21.5968 11.7093 21.4336 11.4805C20.7734 10.5547 19.6076 9.10633 18.0566 7.89551C16.5041 6.68348 14.6187 5.75 12.5 5.75C10.3813 5.75 8.49587 6.68348 6.94336 7.89551C5.39242 9.10633 4.2266 10.5547 3.56641 11.4805C3.40323 11.7093 3.32563 11.8212 3.2793 11.9102C3.2483 11.9697 3.25 11.9839 3.25 12C3.25 12.0161 3.2483 12.0303 3.2793 12.0898C3.32563 12.1788 3.40323 12.2907 3.56641 12.5195C4.2266 13.4453 5.39242 14.8937 6.94336 16.1045C8.49587 17.3165 10.3813 18.25 12.5 18.25C14.6187 18.25 16.5041 17.3165 18.0566 16.1045C19.6076 14.8937 20.7734 13.4453 21.4336 12.5195C21.5968 12.2907 21.6744 12.1788 21.7207 12.0898C21.7517 12.0303 21.75 12.0161 21.75 12ZM23.25 12C23.25 12.6021 22.9182 13.0206 22.6543 13.3906C21.9484 14.3804 20.6865 15.9544 18.9795 17.2871C17.2739 18.6186 15.0705 19.75 12.5 19.75C9.92952 19.75 7.72613 18.6186 6.02051 17.2871C4.31346 15.9544 3.05159 14.3804 2.3457 13.3906C2.08179 13.0206 1.75 12.6021 1.75 12C1.75 11.3979 2.08179 10.9794 2.3457 10.6094C3.05159 9.61958 4.31347 8.04556 6.02051 6.71289C7.72613 5.38137 9.92952 4.25 12.5 4.25C15.0705 4.25 17.2739 5.38137 18.9795 6.71289C20.6865 8.04556 21.9484 9.61958 22.6543 10.6094C22.9182 10.9794 23.25 11.3979 23.25 12Z" fill="#141B34"/>
<path d="M14.75 12C14.75 13.2426 13.7426 14.25 12.5 14.25C11.2574 14.25 10.25 13.2426 10.25 12C10.25 10.7574 11.2574 9.75 12.5 9.75C13.7426 9.75 14.75 10.7574 14.75 12ZM16.25 12C16.25 9.92893 14.5711 8.25 12.5 8.25C10.4289 8.25 8.75 9.92893 8.75 12C8.75 14.0711 10.4289 15.75 12.5 15.75C14.5711 15.75 16.25 14.0711 16.25 12Z" fill="#141B34"/>
</svg>
